<svg xmlns="http://www.w3.org/2000/svg" width="484.656" height="597.344" viewBox="0 0 484.656 597.344">
  <defs>
    <style>
      .cls-1 {
        fill: #363637;
        fill-rule: evenodd;
      }
    </style>
  </defs>
  <path id="cadastro" class="cls-1" d="M452.435,286H937.092V883.329H452.435V286Zm30.823,34.29H906.24V848.011H483.258V320.29Zm151.3,408.049L679.136,754.4l-42.519,23.66Zm4.8-6.858,45.949,27.775L854.015,473.223l-45.949-30.175ZM812.867,434.818l45.948,27.432,17.831-32.233s2.755-10.633-.686-18.516c-5.587-12.8-14.987-17.145-26.06-17.145-7.868,0-17.145,6.858-17.145,6.858ZM561.735,364.524v29.832H795.176V364.524H561.735Zm225.757,84.353,20.574-28.8H512.373v28.8H787.492ZM755.946,503.4l16.459-26.746H512.373V503.4H755.946Zm-32.233,51.435,17.831-27.775H512.373v27.775h211.34ZM690.8,609.353l17.145-24.688H512.373v24.688H690.8Zm-28.118,46.292,14.4-22.632H512.373v22.632h150.3Zm111.1-22.632L758,655.645H868.19V633.013H773.776Zm11.659-23.66,15.773-24.688H868.19v24.688H785.435Zm32.918-54.52,14.4-27.775H868.19v27.775H818.353ZM848.528,503.4L864.3,476.652h3.888V503.4H848.528ZM636.617,700.907l14.4-22.631H512.373v22.631H636.617Zm-12.151,48.349V725.6H512.373v23.66H624.466Zm0,28.8v23.66H512.373V778.06H624.466Zm107.477-77.153,12.344-22.631h123.9v22.631H731.943Zm-28.8,48.349,13.03-23.66H868.19v23.66H703.139Z" transform="translate(-452.438 -286)"/>
</svg>
