<svg id="a4efc002-80f6-4f30-a290-092c25b18b21" data-name="Layer 1" xmlns="http://www.w3.org/2000/svg" width="1149" height="784.07921" viewBox="0 0 1149 784.07921"><title>done</title><path d="M371.61557,235.16986s12.07173-3.53356,15.06127-7.09706,17.23169-10.58881,19.22867-6.63665,23.69491,16.08378,9.98492,19.76083-32.47825,6.1463-36.71739,4.86676S371.61557,235.16986,371.61557,235.16986Z" transform="translate(-25.5 -57.9604)" fill="#a8a8a8"/><path d="M415.75716,239.67536c-13.71,3.67708-32.47824,6.14632-36.71739,4.86677-3.22834-.97444-5.92072-6.779-7.02206-9.49357-.25452.07789-.40214.12129-.40214.12129s3.31832,9.61433,7.55747,10.89388,23.00741-1.1897,36.71739-4.86677c3.95754-1.06142,4.96115-2.828,4.34348-4.89825C420.0107,237.70432,418.70281,238.88535,415.75716,239.67536Z" transform="translate(-25.5 -57.9604)" opacity="0.2"/><rect x="343" y="126.07921" width="806" height="467" fill="#e8e8e8"/><rect x="362" y="267.82921" width="442" height="231.5" fill="#00b0ff" opacity="0.3"/><rect x="838" y="257.7371" width="177.2807" height="9.80702" fill="#000000"/><rect x="838" y="275.84236" width="258" height="9.80702" fill="#000000"/><rect x="838" y="319.59675" width="177.2807" height="9.80702" fill="#000000"/><rect x="838" y="392.0178" width="177.2807" height="9.80702" fill="#000000"/><rect x="838" y="337.70201" width="258" height="9.80702" fill="#000000"/><rect x="838" y="355.80728" width="258" height="9.80702" fill="#000000"/><rect x="838" y="373.91254" width="258" height="9.80702" fill="#000000"/><rect x="838" y="435.77219" width="92.78947" height="25.64912" fill="#00b0ff"/>><ellipse cx="572.22317" cy="364.11087" rx="50.01735" ry="50.10831" fill="#fff"/><path d="M597.72317,363.42341A59.77683,59.77683,0,1,0,657.5,423.20024,59.95257,59.95257,0,0,0,597.72317,363.42341Zm-12.27149,91.64822L554.81605,424.436l8.59292-8.59291,22.07145,22.07145,46.58569-46.5857,8.59292,8.59292-55.20735,55.14987Z" transform="translate(-25.5 -57.9604)" fill="#00b0ff"/></svg>