<svg xmlns="http://www.w3.org/2000/svg" width="350" height="435" viewBox="0 0 706.692 871">
  <defs>
    <style>
      .cls-1 {
        fill: #363637;
        fill-rule: evenodd;
      }
    </style>
  </defs>
  <path id="cadastro" class="cls-1" d="M452.434,286H1159.14v871H452.434V286Zm44.944,50H1114.15v769.5H497.378V336ZM718,931l65,38-62,34.5Zm7-10,67,40.5L1038,559l-67-44ZM978,503l67,40,26-47s4.02-15.5-1-27c-8.15-18.667-21.85-25-38-25-11.47,0-25,10-25,10ZM611.81,400.5V444H952.2V400.5H611.81ZM941,523.5l30-42H539.833v42H941ZM895,603l24-39H539.833v39H895Zm-47,75,26-40.5H539.833V678H848Zm-48,79.5,25-36H539.833v36H800ZM759,825l21-33H539.833v33H759Zm162-33-23,33h160.67V792H921Zm17-34.5,23-36h97.67v36H938ZM986,678l21-40.5h51.67V678H986Zm44-75,23-39h5.67v39H1030ZM721,891l21-33H539.833v33H721Zm-17.718,70.5V927H539.833v34.5H703.282Zm0,42V1038H539.833v-34.5H703.282ZM860,891l18-33h180.67v33H860Zm-42,70.5L837,927h221.67v34.5H818Z" transform="translate(-452.438 -286)"/>
</svg>
