<svg xmlns="http://www.w3.org/2000/svg" width="65.875" height="80.094" viewBox="0 0 65.875 80.094">
  <defs>
    <style>
      .cls-1 {
        fill: #fff;
        fill-rule: evenodd;
      }
    </style>
  </defs>
  <path id="CLIENTES" class="cls-1" d="M9.7,69.062H67.234A4.263,4.263,0,0,0,69.9,67.58a7.34,7.34,0,0,0,.89-3.262L68.421,42.965A6.856,6.856,0,0,0,66.938,39.7a7.777,7.777,0,0,0-3.262-1.779s-1.786-.487-3.559-0.89c-1.459-.332-2.966-0.593-2.966-0.593V35.848h5.635a3.078,3.078,0,0,0,1.779-.593,3.641,3.641,0,0,0,.89-1.779l0.593-18.09a11.068,11.068,0,0,0-1.186-4.745A13.413,13.413,0,0,0,61.6,6.785,12.565,12.565,0,0,0,57.745,3.82a10.015,10.015,0,0,0-3.559-.89H50.627a15.176,15.176,0,0,0-3.855,1.483A10.753,10.753,0,0,0,44.1,6.785a7.566,7.566,0,0,0-3.559,2.076,10.014,10.014,0,0,0-1.779,4.152,32.71,32.71,0,0,0-.593,6.228c0,11.467,1.186,15.718,1.186,15.718,0.489,0.814,2.076.89,2.076,0.89h5.338v0.593a24.616,24.616,0,0,0-4.448.89,14.157,14.157,0,0,0-3.559,1.779H36.986a17.6,17.6,0,0,0-3.262-1.483,27.125,27.125,0,0,0-3.855-.89,5.164,5.164,0,0,1-1.779-1.483,1.446,1.446,0,0,1,.3-1.483,12.2,12.2,0,0,0,4.152-3.855,13.457,13.457,0,0,0,1.483-5.338A22.388,22.388,0,0,0,36.1,22.5a5.211,5.211,0,0,0,.89-1.483,7.722,7.722,0,0,0,0-1.186,9.635,9.635,0,0,0-.3-1.483l-0.3-2.669a10.5,10.5,0,0,0-1.186-5.635,10.02,10.02,0,0,0-2.966-3.559A11.393,11.393,0,0,0,28.385,3.82a16.914,16.914,0,0,0-5.338-.89,19.151,19.151,0,0,0-5.338,1.186,10.812,10.812,0,0,0-3.855,2.966,16.067,16.067,0,0,0-2.373,3.262A13.945,13.945,0,0,0,10.3,13.9v4.745a3.746,3.746,0,0,0-.3,2.966,6.859,6.859,0,0,0,1.779,2.076,8.26,8.26,0,0,1,.89,1.186,10.57,10.57,0,0,0,1.779,5.041A13.831,13.831,0,0,0,18.3,33.475l0.3,1.779a5.125,5.125,0,0,1-1.483.89,21.227,21.227,0,0,1-3.559,1.186,10.921,10.921,0,0,0-4.745,2.076,6.844,6.844,0,0,0-1.779,3.855s-0.426,4.225-.89,8.6C5.579,57.181,4.957,62.835,4.957,62.835a8.925,8.925,0,0,0,.593,4.448c0.643,1.227,2.669,1.779,2.669,1.779H9.7ZM8.516,54.234l4.152,0.3L12.075,67.58l-3.559-.3a1.667,1.667,0,0,1-1.483-.89,8.765,8.765,0,0,1-.593-2.966l1.186-9.193h0.89ZM28.089,67.283H13.854l1.186-18.09a0.982,0.982,0,0,0-.3-0.89,1.446,1.446,0,0,0-1.186-.3,1.705,1.705,0,0,0-.593,1.186v3.559l-5.338-.3,1.186-8.9a3.975,3.975,0,0,1,1.779-2.966,16.6,16.6,0,0,1,5.041-1.779,2.179,2.179,0,0,1,1.186.89,37.98,37.98,0,0,0,2.669,3.262,1.794,1.794,0,0,0,1.483.3,3.947,3.947,0,0,0,1.483-.89v3.855a8.692,8.692,0,0,0,.593.89,3.5,3.5,0,0,0,.593.593,3.691,3.691,0,0,0,.3-0.593c0.152-.38.3-0.89,0.3-0.89V42.372a6.805,6.805,0,0,0,1.483.89,1.408,1.408,0,0,0,.89,0,3.922,3.922,0,0,0,1.186-.89c0.7-.7,1.459-1.969,2.076-2.669a1.713,1.713,0,0,1,.89-0.593,1.426,1.426,0,0,1,1.186,0C33.306,39.45,35.5,40.3,35.5,40.3a0.915,0.915,0,0,1,.593.89c-0.042.866-.744,2.722-0.89,4.152-0.356,3.488-.593,7.117-0.593,7.117H34.02l-0.3-3.262s0.3-1.351-.89-1.186c-0.909.126-.593,1.186-0.593,1.186s-0.046,1.644,0,4.448c0.088,5.356.3,13.642,0.3,13.642H28.089Zm-2.965-26.69,0.89,0.89,2.669-2.965a2.092,2.092,0,0,0-.89-0.89,1.632,1.632,0,0,0-1.186.3L24.827,40Zm-3.262-.3-1.186,1.186-2.669-2.965a2.124,2.124,0,0,1,1.186-.89,1.977,1.977,0,0,1,1.186.593Zm4.448-5.635v0.89l-2.966,3.262-2.669-2.965-0.3-1.186H26.31Zm-2.669-1.779h1.483a11.856,11.856,0,0,0,4.745-2.669,11.685,11.685,0,0,0,2.372-4.448V18.648s-0.905-1.1-1.779-2.373A14.465,14.465,0,0,1,29.275,14.2H17.709a4.941,4.941,0,0,0-.89.3,0.618,0.618,0,0,0-.3.3,3.787,3.787,0,0,1-.3,2.076,5.689,5.689,0,0,1-1.779,1.779v6.821a12.38,12.38,0,0,0,2.966,5.338c1.554,1.494,4.745,2.076,4.745,2.076h1.483Zm0-20.462H16.82a3.645,3.645,0,0,0-1.186.593,2.277,2.277,0,0,0-.593.89,5.614,5.614,0,0,1-.89,2.669,2.516,2.516,0,0,1-2.076.593,13.327,13.327,0,0,1,.3-4.448,10.377,10.377,0,0,1,1.779-3.262,11.983,11.983,0,0,1,3.855-3.262,19.948,19.948,0,0,1,5.041-1.483s4.535,0.158,7.414,2.372a12.143,12.143,0,0,1,3.855,5.931,10.046,10.046,0,0,1,.3,4.152,2.382,2.382,0,0,1-2.076-.89c-0.652-.876-0.723-2.919-1.483-3.559a2.429,2.429,0,0,0-2.076-.3H23.641Zm16.9,42.111L36.1,53.938l-0.89,9.786a3.973,3.973,0,0,0,.3,2.669c0.456,0.627,2.076.593,2.076,0.593l3.262,0.3,0.593-12.752h-0.89Zm3.262,12.752H61.6l-0.89-18.09a1.657,1.657,0,0,1,.3-0.593,4.548,4.548,0,0,1,.593-0.593,4.546,4.546,0,0,1,.593.593,1.657,1.657,0,0,1,.3.593l0.3,3.559,5.042-.593s-0.265-1.927-.593-4.448a22.5,22.5,0,0,0-1.186-5.931A4.378,4.378,0,0,0,61.9,39.407a18.872,18.872,0,0,1-1.483,5.041c-0.923,1.538-3.427,1.329-4.745.89a14.373,14.373,0,0,1-3.559-2.076,19.592,19.592,0,0,1-4.152,2.373,3.7,3.7,0,0,1-2.669,0,3.429,3.429,0,0,1-1.779-1.779,16.067,16.067,0,0,1-1.186-4.448,5.644,5.644,0,0,0-3.559,1.779,11.88,11.88,0,0,0-1.779,5.042l-0.3,5.931,4.745,0.593V48.9a0.751,0.751,0,0,1,.3-0.593,2.5,2.5,0,0,1,.89-0.3,1.164,1.164,0,0,1,.593.3,1.609,1.609,0,0,1,.3.593L42.62,67.283h1.186Zm18.98-12.752,5.338-.3,0.89,8.3a8.422,8.422,0,0,1-.3,3.262,2.705,2.705,0,0,1-1.779,1.483H63.379L62.786,55.124V54.531ZM51.813,34.662H49.144a3.755,3.755,0,0,1-.3,2.373,3.712,3.712,0,0,1-2.076,1.186A7.06,7.06,0,0,0,49.144,40.3a7.891,7.891,0,0,0,2.966.593A9.7,9.7,0,0,0,55.372,40a5.359,5.359,0,0,0,1.779-1.779,2.173,2.173,0,0,1-1.779-.89,5.584,5.584,0,0,1-.3-2.669H51.813Zm5.338,5.931-2.372,2.076a5.416,5.416,0,0,0,2.372,1.186,3.688,3.688,0,0,0,1.779-.593c0.3,0.228,1.509-3.755.593-4.448Zm-10.676,0,2.966,2.076a3.927,3.927,0,0,1-1.779,1.186,3.8,3.8,0,0,1-2.076-.3A6.579,6.579,0,0,1,44.1,41.186a3.732,3.732,0,0,1,.3-2.372Zm-3.262-6.524s1.618-.121,2.669-0.3a2.537,2.537,0,0,0,.89-0.3,10.341,10.341,0,0,1-3.559-2.966,11.074,11.074,0,0,1-1.483-4.152l-0.3-7.71a1.77,1.77,0,0,1,.593-1.483,23.036,23.036,0,0,1,2.966-1.779A9.268,9.268,0,0,1,47.662,13.9a2.367,2.367,0,0,1,1.779.593,20.793,20.793,0,0,0,5.041,3.855,16.71,16.71,0,0,0,6.228,1.483,3.126,3.126,0,0,1,1.483.593,2.412,2.412,0,0,1,.593,1.186A17.427,17.427,0,0,1,61.6,29.027a11.471,11.471,0,0,1-4.448,4.448v0.593l5.635-.3a1.875,1.875,0,0,0,.593-0.593,2.907,2.907,0,0,0,.3-0.89l0.3-16.607S63.436,11.3,61.007,8.565A13.339,13.339,0,0,0,53.3,4.709a9.763,9.763,0,0,0-4.152.593,14.76,14.76,0,0,0-4.152,2.966,8.105,8.105,0,0,0-3.559,2.669,10.437,10.437,0,0,0-1.186,5.042s-0.135,2.417,0,5.931c0.159,4.144.593,9.49,0.593,9.49a4.243,4.243,0,0,0,.3,2.076,1.894,1.894,0,0,0,1.186.593h0.89Zm9.193-1.186a10.777,10.777,0,0,0,5.338-2.076,13.428,13.428,0,0,0,3.262-5.041V21.91a22.9,22.9,0,0,1-7.414-1.779,18.471,18.471,0,0,1-5.338-4.152,16.408,16.408,0,0,0-2.669,1.186,14.323,14.323,0,0,0-2.372,1.779v7.117a11.37,11.37,0,0,0,2.669,4.448c1.35,1.406,4.448,2.373,4.448,2.373h2.076ZM9.041,82.091a2.919,2.919,0,0,0,2.251.827,4.071,4.071,0,0,0,.653-0.405,7.979,7.979,0,0,0,.718-0.608q0.365-.346.737-0.763t0.718-.87a0.483,0.483,0,0,0-.144-0.252,15.333,15.333,0,0,1-1.724,1.4,4.213,4.213,0,0,1-1.305.659,1.086,1.086,0,0,1-.731-0.635,3.143,3.143,0,0,1-.275-1.425,8.494,8.494,0,0,1,1.665-4.9,4.794,4.794,0,0,1,.521-0.635A3.836,3.836,0,0,1,12.705,74,2.97,2.97,0,0,1,13.3,73.68a1.569,1.569,0,0,1,.569-0.114,0.532,0.532,0,0,1,.659.527,1.292,1.292,0,0,1-.245.689,3.275,3.275,0,0,1-.665.724,1.05,1.05,0,0,0,.287.545,0.933,0.933,0,0,0,.539.281,2.2,2.2,0,0,0,.371-0.4,3.438,3.438,0,0,0,.293-0.473,2.458,2.458,0,0,0,.192-0.5,1.938,1.938,0,0,0,.066-0.491,1.146,1.146,0,0,0-.461-0.97,2.1,2.1,0,0,0-1.287-.347,3.97,3.97,0,0,0-1.377.246,4.939,4.939,0,0,0-1.263.689,6.279,6.279,0,0,0-1.09,1.049,6.953,6.953,0,0,0-.856,1.331,7.4,7.4,0,0,0-.557,1.535,6.928,6.928,0,0,0-.2,1.649A3.462,3.462,0,0,0,9.041,82.091ZM19.9,81.356q-0.21.018-.407,0.048t-0.4.072q-0.2.042-.443,0.1-0.276.072-.473,0.114t-0.365.072a3.208,3.208,0,0,1-.323.042q-0.156.012-.347,0.012a1.9,1.9,0,0,1,.12-0.538q0.12-.359.317-0.862t0.449-1.125q0.251-.622.515-1.328t0.527-1.346q0.252-.628.461-1.125t0.365-.844a4.709,4.709,0,0,1,.252-0.5,2.924,2.924,0,0,0-.677-0.736,2.093,2.093,0,0,0-.832-0.353q-0.144.659-.263,1.162t-0.245.964q-0.126.461-.281,0.952t-0.371,1.138q-0.335.982-.629,1.73T16.31,80.308q-0.24.557-.419,0.946t-0.3.653a3.7,3.7,0,0,0,.515.677,1.467,1.467,0,0,0,.551.377q0.587-.1,1.03-0.165t0.8-.1a6.236,6.236,0,0,1,.653-0.038h1.042a2.917,2.917,0,0,1,.425.03c0.016-.064.03-0.125,0.042-0.184a1,1,0,0,0,.018-0.2,1.975,1.975,0,0,0-.3-0.991Zm3.072,0.233a2.976,2.976,0,0,0,.066.33,1.807,1.807,0,0,0,.1.294,0.308,0.308,0,0,0,.144.168,0.344,0.344,0,0,1,.162.138c0.036,0.06.076,0.12,0.12,0.18a0.7,0.7,0,0,0,.186.168,0.724,0.724,0,0,0,.383.078,0.519,0.519,0,0,1-.036-0.251,7.744,7.744,0,0,1,.114-1.161q0.114-.718.317-1.556T25,78.245q0.275-.891.593-1.693a13.091,13.091,0,0,1,.659-1.43,3.509,3.509,0,0,1,.689-0.94,0.663,0.663,0,0,0-.216-0.233,2.821,2.821,0,0,0-.371-0.234,3.978,3.978,0,0,0-.4-0.186,1.275,1.275,0,0,0-.317-0.09,3.643,3.643,0,0,0-.515.79q-0.287.551-.587,1.282T23.95,77.077q-0.287.833-.509,1.63t-0.359,1.486a5.98,5.98,0,0,0-.138,1.12A2.007,2.007,0,0,0,22.968,81.588Zm8.556-4.651q-0.4.042-.856,0.114,0.3-.68.509-1.133t0.353-.751q0.144-.3.234-0.465t0.162-.274q0.5-.071,1.048-0.137a10.1,10.1,0,0,1,1.2-.066h0.413a4.762,4.762,0,0,1,.6.05,2.043,2.043,0,0,0-.323-0.816,0.613,0.613,0,0,0-.491-0.288,4.622,4.622,0,0,0-.587.053q-0.383.053-.916,0.114a10.593,10.593,0,0,1-1.191.061H29.692q-0.222,0-.461-0.018a1.819,1.819,0,0,0-.066.231,1.077,1.077,0,0,0-.03.231,0.7,0.7,0,0,0,.24.553,0.956,0.956,0,0,0,.659.213q-0.072.348-.15,0.641t-0.174.6q-0.1.305-.222,0.653t-0.305.814q-0.419.1-.707,0.186a1.054,1.054,0,0,0-.347.15,1.024,1.024,0,0,0,.706.6q-0.563,1.476-.928,2.357t-0.569,1.313A2.415,2.415,0,0,0,28.4,82.972q0.5-.089.9-0.153t0.76-.1a6.7,6.7,0,0,1,.713-0.038h2.425a0.578,0.578,0,0,0,.024-0.163V82.365a1.376,1.376,0,0,0-.09-0.5,2.214,2.214,0,0,0-.221-0.431,13.314,13.314,0,0,0-2.078.156q-0.988.156-1.958,0.377a3.372,3.372,0,0,1,.1-0.54q0.09-.36.251-0.852t0.389-1.085q0.227-.594.5-1.229,0.479-.06,1.006-0.15a6.188,6.188,0,0,1,1.042-.09q0.263,0,.455.018t0.347,0.042a1.233,1.233,0,0,0,.042-0.174,1.133,1.133,0,0,0,.018-0.2,0.8,0.8,0,0,0-.221-0.6A0.847,0.847,0,0,0,32.2,76.9,6.7,6.7,0,0,0,31.524,76.937Zm4.957,5.79q-0.006-.108-0.006-0.359a7.92,7.92,0,0,1,.1-1.132q0.1-.653.263-1.383t0.389-1.5q0.221-.766.461-1.461t0.491-1.275a6.974,6.974,0,0,1,.479-0.94q0.036,1.042.1,1.994t0.18,1.886q0.114,0.934.281,1.868t0.419,1.94a0.9,0.9,0,0,0,.557.389,3.169,3.169,0,0,0,.976.138h0.078a0.25,0.25,0,0,0,.078-0.012,0.049,0.049,0,0,1-.012-0.036,10.047,10.047,0,0,1,.138-1.269q0.126-.79.347-1.718t0.515-1.886q0.293-.958.635-1.778a8.532,8.532,0,0,1,.718-1.4,1.82,1.82,0,0,1,.761-0.73,1.384,1.384,0,0,0-.192-0.263,1.892,1.892,0,0,0-.264-0.24,1.974,1.974,0,0,0-.3-0.186,1.1,1.1,0,0,0-.287-0.1,0.634,0.634,0,0,0-.347.341,6.113,6.113,0,0,0-.413.874q-0.222.557-.461,1.3T41.685,77.4q-0.24.868-.461,1.82t-0.413,1.91a13.036,13.036,0,0,1-.473-2.545q-0.1-1.251-.1-2.557,0-.658.036-1.239a6.629,6.629,0,0,1,.1-0.868,0.523,0.523,0,0,0-.257-0.21,4.984,4.984,0,0,0-.539-0.245q-0.305-.12-0.6-0.2a1.874,1.874,0,0,0-.467-0.084l0.084,0.5a8.776,8.776,0,0,0-.6,1.036q-0.341.665-.7,1.467t-0.707,1.677q-0.348.874-.617,1.676T35.517,81a4.382,4.382,0,0,0-.168,1.012,0.608,0.608,0,0,0,.239.509,3.1,3.1,0,0,0,.922.389A0.694,0.694,0,0,1,36.481,82.727ZM47.69,74.7q0.449-.042.952-0.1-0.072.276-.174,0.611t-0.227.694q-0.126.359-.258,0.725t-0.252.7q-0.323.9-.575,1.6T46.72,80.194q-0.186.557-.323,0.994T46.163,82A1.91,1.91,0,0,0,47.5,83q0.084-.5.192-1.033t0.258-1.111q0.15-.582.347-1.255t0.461-1.465q0.132-.408.311-0.919t0.377-1.027q0.2-.516.4-0.991t0.371-.823a6.5,6.5,0,0,1,.784-0.048H52.3a5.389,5.389,0,0,1,.617.036,2.585,2.585,0,0,0-.293-0.88,0.69,0.69,0,0,0-.641-0.329q-0.156,0-.695.065t-1.245.138a14.508,14.508,0,0,1-1.479.072H47.181q-0.407,0-.712-0.017a2.477,2.477,0,0,1-.461-0.058,1,1,0,0,0-.078.228,1.052,1.052,0,0,0-.03.228,0.913,0.913,0,0,0,.257.654,0.969,0.969,0,0,0,.736.27Q47.241,74.74,47.69,74.7Zm9.041,2.239q-0.4.042-.856,0.114,0.3-.68.509-1.133t0.353-.751q0.144-.3.233-0.465t0.162-.274q0.5-.071,1.048-0.137a10.1,10.1,0,0,1,1.2-.066H59.8a4.763,4.763,0,0,1,.6.05,2.044,2.044,0,0,0-.323-0.816,0.613,0.613,0,0,0-.491-0.288,4.62,4.62,0,0,0-.587.053q-0.383.053-.916,0.114a10.6,10.6,0,0,1-1.192.061H54.9q-0.222,0-.461-0.018a1.834,1.834,0,0,0-.066.231,1.077,1.077,0,0,0-.03.231,0.7,0.7,0,0,0,.239.553,0.957,0.957,0,0,0,.659.213q-0.072.348-.15,0.641t-0.174.6q-0.1.305-.221,0.653t-0.305.814q-0.419.1-.706,0.186a1.056,1.056,0,0,0-.347.15,1.024,1.024,0,0,0,.706.6q-0.563,1.476-.928,2.357t-0.569,1.313a2.414,2.414,0,0,0,1.066,1.054q0.5-.089.9-0.153t0.761-.1a6.7,6.7,0,0,1,.712-0.038h2.425a0.578,0.578,0,0,0,.024-0.163V82.365a1.376,1.376,0,0,0-.09-0.5,2.2,2.2,0,0,0-.221-0.431,13.316,13.316,0,0,0-2.078.156q-0.988.156-1.958,0.377a3.384,3.384,0,0,1,.1-0.54q0.09-.36.252-0.852t0.389-1.085q0.227-.594.5-1.229,0.479-.06,1.006-0.15a6.189,6.189,0,0,1,1.042-.09q0.263,0,.455.018t0.347,0.042a1.247,1.247,0,0,0,.042-0.174,1.133,1.133,0,0,0,.018-0.2,0.8,0.8,0,0,0-.222-0.6,0.847,0.847,0,0,0-.617-0.216A6.7,6.7,0,0,0,56.731,76.937Zm10.221-3.563a5.6,5.6,0,0,0-1.545-.216,5.273,5.273,0,0,0-.856.072,3.424,3.424,0,0,0-.82.24,2.518,2.518,0,0,0-1.173.91,2.219,2.219,0,0,0-.407,1.269,1.743,1.743,0,0,0,.162.766,2.023,2.023,0,0,0,.515.641,4.994,4.994,0,0,0,.9.6q0.545,0.294,1.3.629,0.5,0.216.97,0.431a9.086,9.086,0,0,1,.82.425,2.593,2.593,0,0,1,.563.431,0.726,0.726,0,0,1,.222.461,1.43,1.43,0,0,1-.108.383,1.4,1.4,0,0,1-.335.473,2,2,0,0,1-.659.4,2.974,2.974,0,0,1-1.09.168,5.463,5.463,0,0,1-1.311-.174,5.155,5.155,0,0,1-1.359-.557,3.439,3.439,0,0,1-1.06-.91,1.868,1.868,0,0,1-.389-0.85,2.553,2.553,0,0,0-.5.778,1.842,1.842,0,0,0-.138.611,1.389,1.389,0,0,0,.449.976,4.389,4.389,0,0,0,1.126.814,6.913,6.913,0,0,0,1.455.557,5.748,5.748,0,0,0,1.449.2,3.281,3.281,0,0,0,1.233-.222,2.735,2.735,0,0,0,.94-0.617A2.662,2.662,0,0,0,67.9,81.14,3.177,3.177,0,0,0,68.1,80a2.493,2.493,0,0,0-.144-0.9,1.949,1.949,0,0,0-.431-0.665,3.159,3.159,0,0,0-.73-0.539q-0.443-.245-1.054-0.533-0.491-.227-1-0.479t-0.928-.509a4.38,4.38,0,0,1-.707-0.527,0.933,0.933,0,0,1-.323-0.533,0.537,0.537,0,0,1,.162-0.383,1.265,1.265,0,0,1,.443-0.281,3.289,3.289,0,0,1,.647-0.18A4.43,4.43,0,0,1,64.82,74.4a5.386,5.386,0,0,1,.862.072,4.733,4.733,0,0,1,.856.222,3.494,3.494,0,0,1,.76.383,2.37,2.37,0,0,1,.587.557,1.035,1.035,0,0,0,.473-0.485,1.6,1.6,0,0,0,.174-0.737,0.977,0.977,0,0,0-.018-0.21q-0.018-.078-0.054-0.281A11.5,11.5,0,0,0,66.952,73.374Z" transform="translate(-4.906 -2.906)"/>
</svg>
