<svg xmlns="http://www.w3.org/2000/svg" width="75" height="54.031" viewBox="0 0 105 84.031">
  <defs>
    <style>
      .cls-1 {
        fill: #fff;
        fill-rule: evenodd;
      }
    </style>
  </defs>
  <path id="Forma_8" data-name="Forma 8" class="cls-1" d="M11,57s-0.088-2.912,1-4c1.377-1.377,4-1,4-1H27V39h6V21H92V38h7V52h10s3.541,0.541,5,2a7.976,7.976,0,0,1,2,5V97a8.69,8.69,0,0,1-2,5c-2.146,2.146-6,3-6,3H17s-2.583.181-4-1a7.494,7.494,0,0,1-2-4V57Zm3,16h98V97a4.1,4.1,0,0,1-1,2,5.016,5.016,0,0,1-2,1H92V82a4.517,4.517,0,0,0-1-3,5.539,5.539,0,0,0-3-1H36a4.1,4.1,0,0,0-2,1,5.014,5.014,0,0,0-1,2v19H17a2.707,2.707,0,0,1-2-1,7.832,7.832,0,0,1-1-3V73Zm72,27h2V82H37v18h2V94a5.789,5.789,0,0,1,1-3,7.669,7.669,0,0,1,3-2H81a5.474,5.474,0,0,1,3,1,8.024,8.024,0,0,1,2,3v7Zm-42,0H81V93H44v7ZM30,51h3V42H30v9Zm62,0h3V42H92v9Zm20,18H14V60s0.208-3.01,1-4a3.15,3.15,0,0,1,3-1h90a3.4,3.4,0,0,1,2,1,13.468,13.468,0,0,1,2,3V69ZM37,51H88V24H37V51Zm4.958-24v3h42V27h-42Zm0,6.167h42V36h-42V33.167Zm0,5.667v3.333h42V38.833h-42Zm0,6v3.333h42V44.833h-42ZM16.125,60.167h6V65h-6V60.167Zm8,0V65h6V60.167h-6Zm7.667,0V65h6.167V60.167H31.792Z" transform="translate(-11 -21)"/>
</svg>
