<svg xmlns="http://www.w3.org/2000/svg" width="729.575" height="191.95" viewBox="0 0 729.575 191.95">
  <defs>
    <style>
      .cls-1 {
        fill: none;
        stroke: #000;
        stroke-width: 0.95px;
        fill-rule: evenodd;
      }
    </style>
  </defs>
  <path id="Forma_6" data-name="Forma 6" class="cls-1" d="M233,271V257h26v-9H233v-7h26V231H230a8.549,8.549,0,0,0-3,2,5.149,5.149,0,0,0-1,3v35h7Zm-41,0V255h20v16h8V231h-8v15H192V231h-8v40h8Zm21,16h33l18-30,7,11-24,41H198l-35-45,4-5,25,28h21Zm23,44h43l32-57-32-56H261l24,42-32,57H206l7,14h23Zm14-127h35l39,66-27,48h18l38-67-39-65H238l-10,18h22Zm170.86,35.206a44.5,44.5,0,0,0-12.287-1.715,41.934,41.934,0,0,0-6.81.572,27.213,27.213,0,0,0-6.525,1.905,20.031,20.031,0,0,0-9.334,7.239,17.649,17.649,0,0,0-3.239,10.1,13.868,13.868,0,0,0,1.286,6.1,16.071,16.071,0,0,0,4.1,5.1,39.726,39.726,0,0,0,7.143,4.763q4.334,2.334,10.335,5,4,1.715,7.715,3.429a72.1,72.1,0,0,1,6.525,3.382,20.647,20.647,0,0,1,4.477,3.429A5.768,5.768,0,0,1,426,292.165a11.38,11.38,0,0,1-.857,3.048,11.163,11.163,0,0,1-2.667,3.762,15.862,15.862,0,0,1-5.239,3.191,23.655,23.655,0,0,1-8.668,1.334,43.423,43.423,0,0,1-10.43-1.382,40.993,40.993,0,0,1-10.811-4.429,27.329,27.329,0,0,1-8.429-7.239q-2.811-3.9-3.1-6.762a20.28,20.28,0,0,0-3.953,6.191,14.647,14.647,0,0,0-1.095,4.858,11.041,11.041,0,0,0,3.572,7.762,34.868,34.868,0,0,0,8.953,6.477,55.023,55.023,0,0,0,11.573,4.43,45.731,45.731,0,0,0,11.525,1.619,26.1,26.1,0,0,0,9.811-1.762,21.745,21.745,0,0,0,7.477-4.906,21.149,21.149,0,0,0,4.715-7.382,25.273,25.273,0,0,0,1.619-9.1,19.833,19.833,0,0,0-1.143-7.144,15.505,15.505,0,0,0-3.429-5.286,25.119,25.119,0,0,0-5.81-4.286q-3.525-1.952-8.382-4.239-3.906-1.808-7.953-3.81t-7.382-4.048a34.854,34.854,0,0,1-5.62-4.191,7.423,7.423,0,0,1-2.572-4.239A4.273,4.273,0,0,1,389,251.588a10.075,10.075,0,0,1,3.524-2.238,26.164,26.164,0,0,1,5.144-1.429,35.267,35.267,0,0,1,6.239-.524,42.833,42.833,0,0,1,6.858.572,37.721,37.721,0,0,1,6.81,1.762,27.8,27.8,0,0,1,6.049,3.048,18.843,18.843,0,0,1,4.667,4.429,8.228,8.228,0,0,0,3.762-3.858,12.739,12.739,0,0,0,1.381-5.857,7.68,7.68,0,0,0-.143-1.667q-0.143-.619-0.428-2.239A91.462,91.462,0,0,0,420.86,239.206Zm37.672,67.675a32.353,32.353,0,0,0,8.287-7.382,34.555,34.555,0,0,0,5.429-9.763,33.127,33.127,0,0,0,1.953-11.382q0-8.952-5.048-8.954a6.892,6.892,0,0,0-.858.048,6.923,6.923,0,0,1-.857.047q-2.953-5.144-6-6.762-4.572,0-9.81,3.9a36.057,36.057,0,0,0-6.192,5.905,44.592,44.592,0,0,0-4.953,7.287,38.088,38.088,0,0,0-3.238,7.953,29.384,29.384,0,0,0-1.143,7.906,16.933,16.933,0,0,0,3.238,10.668,12.1,12.1,0,0,0,8.668,4.763A32.9,32.9,0,0,0,458.532,306.881Zm0-31.575a20.537,20.537,0,0,1,7.477-4,7.23,7.23,0,0,1,.953,2.477,20.927,20.927,0,0,1,.286,3.905,36.839,36.839,0,0,1-1.477,10.573,32.453,32.453,0,0,1-4.1,8.858,25.845,25.845,0,0,1-6.192,6.524,20.727,20.727,0,0,1-7.858,3.572q-0.952-.285-1.714-2.381a12.691,12.691,0,0,1-.762-4.381,19.152,19.152,0,0,1,.571-4.334,35.549,35.549,0,0,1,1.619-5.049,45.409,45.409,0,0,1,2.477-5.191,43.515,43.515,0,0,1,3.048-4.762A38.938,38.938,0,0,1,458.532,275.306Zm20.717,31.861q0.571,2.429,1.428,3a10.971,10.971,0,0,1,1.524,1.381,5.306,5.306,0,0,1,1.048,1.381,2.451,2.451,0,0,0,1.238,1.143,7.487,7.487,0,0,0,2.286.667,3.113,3.113,0,0,1-.1-0.762v-2a68.454,68.454,0,0,1,2.1-15,188.777,188.777,0,0,1,6.1-20.241,154.635,154.635,0,0,1,10.287-23.145,117.378,117.378,0,0,1,13.049-18.86,7.518,7.518,0,0,0-1.667-1.524,27.346,27.346,0,0,0-2.9-1.857q-1.621-.9-3.286-1.667a11.752,11.752,0,0,0-2.81-.953,84.507,84.507,0,0,0-10.144,16.717q-5.193,10.714-11.1,26.813-3.621,10.1-5.62,17.668a49.684,49.684,0,0,0-2,11.764A23.981,23.981,0,0,0,479.249,307.167Zm50.338-.048q1.287,0.668,2.572,1.191a20.794,20.794,0,0,0,2.334.809,6.786,6.786,0,0,0,1.714.286,0.283,0.283,0,0,0,.191-0.095,0.543,0.543,0,0,0,.19-0.286,2.655,2.655,0,0,0-.333-1.143,17.95,17.95,0,0,1-.714-1.667,18.346,18.346,0,0,1-.715-2.476,15.9,15.9,0,0,1-.333-3.477,25.133,25.133,0,0,1,1.238-7.62,68.842,68.842,0,0,1,3.048-7.858q1.809-3.951,3.9-8.049t3.81-8.286a4.973,4.973,0,0,0-1.428-1.1,13.645,13.645,0,0,0-2.239-.952,22.636,22.636,0,0,0-2.714-.715,13.7,13.7,0,0,0-2.667-.285,19.4,19.4,0,0,0-2.81,3.286,37.141,37.141,0,0,0-2.1,3.476,32.9,32.9,0,0,0-1.524,3.286q-0.621,1.572-1,2.715a27.534,27.534,0,0,1-1.953,4.191q-1.191,2.1-2.524,4.048t-2.619,3.667q-1.285,1.714-2.238,3.048-3.908,5.335-6.1,7.906a11.068,11.068,0,0,1-3.62,3.143,3.129,3.129,0,0,1-.428-0.571,2.173,2.173,0,0,1-.239-1.143,17.606,17.606,0,0,1,.429-3.334q0.429-2.094,1.095-4.286t1.334-4.191a32.362,32.362,0,0,1,1.143-3.048,107.188,107.188,0,0,1,7.763-15.621,75.683,75.683,0,0,1,4.334-6.382,5.834,5.834,0,0,0-1.858-1.381,18.456,18.456,0,0,0-2.286-.905,12.974,12.974,0,0,0-2.333-.524,16.444,16.444,0,0,0-2-.143,25.164,25.164,0,0,0-5.762,6.049,62.491,62.491,0,0,0-4.906,8.286,88.862,88.862,0,0,0-3.857,9,74,74,0,0,0-2.524,8.191,24.928,24.928,0,0,0-.619,3.715q-0.144,1.715-.143,4.381a7.234,7.234,0,0,0,1.476,3.068,11.008,11.008,0,0,0,2.572,2.3,12.9,12.9,0,0,0,3.143,1.486,10.61,10.61,0,0,0,3.191.527,4.64,4.64,0,0,0,1.762-.854,14.984,14.984,0,0,0,2.334-2.09q0.76-.948,2.286-2.942t3.1-4.082q1.572-2.09,2.9-3.609a4.55,4.55,0,0,1,1.715-1.52,10.863,10.863,0,0,0-.476,3.429,15.272,15.272,0,0,0,.619,3.9,7.386,7.386,0,0,0,2.429,3.81A25.2,25.2,0,0,0,529.587,307.119Zm19.717-9.525a21.648,21.648,0,0,0,2.762,5.715,18.779,18.779,0,0,0,4.144,4.382,13.794,13.794,0,0,0,5.143,2.476,72.785,72.785,0,0,0-4.858,6.953,24.728,24.728,0,0,0-2.571,5.049,3.38,3.38,0,0,0,.285.619,1.542,1.542,0,0,0,.477.524q1.143-.382,2.714-0.905t3.144-1.048q1.571-.525,3-0.857t2.191-.524q-1.239,2-2.382,3.619a28.932,28.932,0,0,1-2.476,3.048q-1.335,1.43-2.953,2.953t-3.81,3.334a2.509,2.509,0,0,0,.238.857,9.376,9.376,0,0,0,.572,1.143,8.846,8.846,0,0,0,.667,1,0.9,0.9,0,0,0,.523.429,5.715,5.715,0,0,0,2.429-1,40.945,40.945,0,0,0,3.667-2.524q2-1.525,4.191-3.429t3.953-3.62a35,35,0,0,0,2.9-3.143,4.267,4.267,0,0,0,1.143-2.1,2.155,2.155,0,0,0-.714-1.143,19.573,19.573,0,0,0-3.477-2.905,3.164,3.164,0,0,0-1.333-.619,14.958,14.958,0,0,0-2.143.191,20.236,20.236,0,0,0-2.619.571q-1.336.38-2.62,0.81a12.6,12.6,0,0,0-2.143.9,29.322,29.322,0,0,1,1.905-3.715q1.236-2.1,2.762-4.286a15.383,15.383,0,0,0,3.715-1.524,46.845,46.845,0,0,0,4.286-2.667,41.731,41.731,0,0,0,4.191-3.334,31.857,31.857,0,0,0,3.525-3.715,2.768,2.768,0,0,0-.953-1.9q-2.193,1.621-4.524,3.048t-4.525,2.524a35,35,0,0,1-4.1,1.762,17.186,17.186,0,0,1-3.333.858q-3.429-1.522-3.429-9.24A32.223,32.223,0,0,1,561.02,284.5a32.686,32.686,0,0,1,6.239-10.144,26.975,26.975,0,0,1,5.524-4.762,9.553,9.553,0,0,1,4.763-1.81q2.19,0,2.191,2.762,0,4.764-6.382,10.573a6.05,6.05,0,0,0,1.952,1.857,4.528,4.528,0,0,0,2.334.715,4.438,4.438,0,0,0,2.667-1,9.372,9.372,0,0,0,2.334-2.619,15.511,15.511,0,0,0,1.619-3.667,14.585,14.585,0,0,0,.619-4.239,9.147,9.147,0,0,0-2.667-7.048q-2.668-2.476-7.62-2.477a21.061,21.061,0,0,0-9.763,2.429,30.284,30.284,0,0,0-8.382,6.382,32.286,32.286,0,0,0-5.906,9.049,25.913,25.913,0,0,0-2.238,10.525A21.533,21.533,0,0,0,549.3,297.594Zm60.1,9.287a32.353,32.353,0,0,0,8.287-7.382,34.555,34.555,0,0,0,5.429-9.763,33.126,33.126,0,0,0,1.952-11.382q0-8.952-5.048-8.954a6.887,6.887,0,0,0-.857.048,6.934,6.934,0,0,1-.857.047q-2.953-5.144-6-6.762-4.572,0-9.811,3.9a36.089,36.089,0,0,0-6.191,5.905,44.592,44.592,0,0,0-4.953,7.287,38.038,38.038,0,0,0-3.239,7.953,29.384,29.384,0,0,0-1.143,7.906,16.928,16.928,0,0,0,3.239,10.668,12.1,12.1,0,0,0,8.668,4.763A32.9,32.9,0,0,0,609.407,306.881Zm0-31.575a20.537,20.537,0,0,1,7.477-4,7.229,7.229,0,0,1,.952,2.477,20.841,20.841,0,0,1,.286,3.905,36.839,36.839,0,0,1-1.476,10.573,32.426,32.426,0,0,1-4.1,8.858,25.842,25.842,0,0,1-6.191,6.524,20.733,20.733,0,0,1-7.858,3.572q-0.954-.285-1.715-2.381a12.691,12.691,0,0,1-.762-4.381,19.158,19.158,0,0,1,.572-4.334,35.421,35.421,0,0,1,1.619-5.049,45.569,45.569,0,0,1,2.476-5.191,43.816,43.816,0,0,1,3.048-4.762A38.946,38.946,0,0,1,609.407,275.306Zm2.619-19.908q3.524,2.573,9.43,2.572a37.425,37.425,0,0,0,6.763-.667,51.686,51.686,0,0,0,7.9-2.19c-0.128-.634-0.285-1.365-0.476-2.191a21.265,21.265,0,0,0-.714-2.429,20.817,20.817,0,0,0-.953-2.238,8.447,8.447,0,0,0-1.1-1.715,57.164,57.164,0,0,1-8.763,3.381,27.814,27.814,0,0,1-7.525,1.1,27.1,27.1,0,0,1-8.763-1.524A9.755,9.755,0,0,0,612.026,255.4Zm43.529,7.525a15.387,15.387,0,0,0-6.334,1.429,27.2,27.2,0,0,0-6.191,3.905,37.624,37.624,0,0,0-5.62,5.81,44.925,44.925,0,0,0-4.572,7.1,38.97,38.97,0,0,0-3.048,7.811,30.343,30.343,0,0,0-1.1,7.953,14.029,14.029,0,0,0,3.667,9.763q3.666,4.049,10.24,4.811a26.692,26.692,0,0,0,9.668-4.811,45.833,45.833,0,0,0,9.382-9.477,19.719,19.719,0,0,0-1.619-1.619q-1.526,1.62-3.477,3.572a38.067,38.067,0,0,1-4.191,3.619,26.391,26.391,0,0,1-4.715,2.81,11.937,11.937,0,0,1-5.048,1.143,3.308,3.308,0,0,1-2.191-.714,4.745,4.745,0,0,1-1.333-1.858,10.015,10.015,0,0,1-.667-2.476,18.044,18.044,0,0,1-.191-2.572c0-.443.015-0.872,0.048-1.286s0.048-.809.048-1.19a84.825,84.825,0,0,0,10.668-4.953,35.515,35.515,0,0,0,7.762-5.763,22.121,22.121,0,0,0,4.906-7.43,32.7,32.7,0,0,0,2.1-10.144q-3.81-4.857-8.191-5.429h0Zm-3.81,20.717a42.5,42.5,0,0,1-12.668,9.382,38.4,38.4,0,0,1,3.143-8.191,36.33,36.33,0,0,1,4.429-6.668,22.282,22.282,0,0,1,5.191-4.572,14.116,14.116,0,0,1,5.334-2.1A19.513,19.513,0,0,1,651.745,283.64Zm47.624-16.812a33.84,33.84,0,0,0-3.048-3.476,38.639,38.639,0,0,0-3.477-3.1,9.052,9.052,0,0,0-2.809-1.667,14.365,14.365,0,0,0-4.763,2.106,17.617,17.617,0,0,0-4,3.682,19.343,19.343,0,0,0-2.763,4.688,13.293,13.293,0,0,0-1.047,5.117,17.9,17.9,0,0,0,.476,4.066q0.476,2.058,1,4.21t1,4.449a23.037,23.037,0,0,1,.476,4.686,18.948,18.948,0,0,0-7.763,1.584,21.039,21.039,0,0,0-6.191,4.128,19.389,19.389,0,0,0-4.143,5.855,16.446,16.446,0,0,0-1.524,6.959,8.17,8.17,0,0,0,1.333,2.62,13.325,13.325,0,0,0,4.953,4.048,7.906,7.906,0,0,0,2.763.762q7.715-.763,12.049-5.612t4.334-12.813q0-1.135-.048-1.9c-0.033-.506-0.048-1.01-0.048-1.516a2.329,2.329,0,0,1,.143-0.9,1.458,1.458,0,0,1,.81-0.617,14.686,14.686,0,0,1,1.952-.616q1.287-.33,3.477-0.806a1.69,1.69,0,0,0,.381-1.233,1.99,1.99,0,0,0-.1-0.757h-6.668a3.677,3.677,0,0,1-.1-1.137q0-9.2,2-13.935t5.811-4.74a1.924,1.924,0,0,1,1.666.905,3.87,3.87,0,0,1,.62,2.238,4.58,4.58,0,0,1-.239,1.333q-0.239.764-.523,1.524c-0.191.509-.367,0.969-0.524,1.382a2.868,2.868,0,0,0-.238.9,1.4,1.4,0,0,0,1.238,1.429,2.288,2.288,0,0,0,1.619-1.048,13.288,13.288,0,0,0,1.619-2.619,19.936,19.936,0,0,0,1.286-3.524,18.331,18.331,0,0,0,.619-3.763A8.868,8.868,0,0,0,699.369,266.828Zm-31.718,42.91a7.633,7.633,0,0,1,1.333-3.81,23.867,23.867,0,0,1,3.334-4.238,24.851,24.851,0,0,1,4.286-3.524A10.922,10.922,0,0,1,680.8,296.4a15.159,15.159,0,0,1-.9,5.049,21.8,21.8,0,0,1-2.428,4.857,21.042,21.042,0,0,1-3.572,4.1,15.654,15.654,0,0,1-4.334,2.762,4.031,4.031,0,0,1-1.905-3.429h0ZM377,345s38.364-1.99,72-6c41.109-4.9,79-12,79-12s-112.485,11-165-1c-15.132-3.457-11-11-11-11a66.816,66.816,0,0,0-8,9,60.75,60.75,0,0,0-6,11s-2.389,6.8,4,9c7.941,2.738,25,1,25,1h10Zm343-51s0.2,19.788-11,37c-15.185,23.34-43,46-43,46s49.816-20.982,68-42c20.209-23.358,9-47,9-47s-4.962-10.5-17-21c-11.447-9.986-30-20-30-20s11.131,9.125,18,20c4.718,7.47,6,18,6,18v9Zm-18-50s4.856,0.191,25,16c19.339,15.178,20,18,20,18s12.446,16.078,12,29c-0.544,15.789-14,29-14,29s15.3-6.2,27-14a91.49,91.49,0,0,0,18-16s10.6-8.914,5-21c-6.775-14.62-31.558-25.047-77-41-20.471-7.187-41-12-41-12l22,10Zm40,1s-23.114-7.537-47-14c-17.66-4.779-38-9-38-9s30.963,0.8,62,4c31.95,3.3,64,9,64,9s39.564,5.25,55,16c12.173,8.478,1,23,1,23a73.8,73.8,0,0,1-12,12,189.71,189.71,0,0,1-22,14s9.975-8.725,2-20c-6.334-8.955-31-21-31-21s-7.972-3.907-15-7c-5.188-2.283-10-4-10-4Zm12-42,84,2s39.18,0.639,50,9c11.174,8.635-7,27-7,27a117.114,117.114,0,0,1-11,11,187.749,187.749,0,0,1-16,12s5.977-8.383-3-16c-7.361-6.246-30-12-30-12a1100.989,1100.989,0,0,0-114-16c-73.422-6.408-161-8-161-8s47.345-3.015,94-5c47.34-2.014,96-4,96-4h18Z" transform="translate(-162.525 -185.525)"/>
</svg>
