<svg height="15pt" viewBox="0 0 511.9995 511" width="15pt" xmlns="http://www.w3.org/2000/svg"><path fill="#ffffff" d="m397.800781 334.664062c-6.078125-6.078124-16.015625-5.808593-21.757812.570313l-9.519531 10.578125-23.515626-23.515625c29.273438-34.117187 46.984376-78.429687 46.984376-126.800781 0-107.519532-87.476563-194.996094-194.996094-194.996094-107.519532 0-194.996094 87.476562-194.996094 194.996094 0 107.519531 87.476562 194.996094 194.996094 194.996094 48.375 0 92.683594-17.710938 126.800781-46.984376l24.632813 24.632813-10.574219 11.75c-5.339844 5.929687-5.101563 15 .542969 20.640625l98.773437 98.773438c17.589844 17.589843 46.042969 17.59375 63.636719 0 17.585937-17.585938 17.589844-46.042969 0-63.632813zm-367.800781-139.167968c0-90.980469 74.015625-164.996094 164.996094-164.996094 90.980468 0 164.996094 74.015625 164.996094 164.996094 0 90.980468-74.015626 164.996094-164.996094 164.996094-90.980469 0-164.996094-74.015626-164.996094-164.996094zm447.59375 282.597656c-5.863281 5.867188-15.339844 5.867188-21.207031 0l-88.714844-88.710938 20.09375-22.328124 89.828125 89.832031c5.847656 5.847656 5.847656 15.359375 0 21.207031zm0 0"/><path fill="#ffffff" d="m194.996094 60.5c-74.4375 0-134.996094 60.558594-134.996094 134.996094s60.558594 134.996094 134.996094 134.996094 134.996094-60.558594 134.996094-134.996094-60.558594-134.996094-134.996094-134.996094zm0 239.992188c-57.894532 0-104.996094-47.101563-104.996094-104.996094 0-57.894532 47.101562-105 104.996094-105 57.894531 0 105 47.105468 105 105 0 57.894531-47.105469 104.996094-105 104.996094zm0 0"/>></svg>