<svg xmlns="http://www.w3.org/2000/svg" width="65.875" height="80.094" viewBox="0 0 273.938 307.969">
  <defs>
    <style>
      .cls-1 {
        fill: #fff;
        fill-rule: evenodd;
      }
    </style>
  </defs>
  <path id="produtos" class="cls-1" d="M132.122,23L14.9,85.624v112.4l117.219,78.68,122.035-67.44V90.441ZM19.72,98.469L127.3,161.093v99.555L19.72,190V98.469Zm157.362,41.749-40.946,20.875V262.254l109.992-57.806V100.075l-32.114,17.663v40.143l-28.9,16.058s-2.635,2.478-4.818,1.605c-1.793-.717-3.211-4.817-3.211-4.817V140.218Zm-44.96,12.846,40.143-22.48L61.469,71.172,26.143,90.441ZM74.315,66.355L91.978,56.72l114.007,62.624-1.606,32.114L186.716,162.7V128.978ZM209.2,111.315l30.508-17.663L132.122,34.24,103.218,50.3ZM29.076,298.622a8.073,8.073,0,0,0-2.245-2.84,10.715,10.715,0,0,0-3.573-1.856,15.687,15.687,0,0,0-4.719-.664,34.839,34.839,0,0,0-4.6.321,40.377,40.377,0,0,0-4.65.893,35.009,35.009,0,0,0-4.215,1.351,16.549,16.549,0,0,0-3.3,1.7,4.355,4.355,0,0,0,.321,1.237,11.943,11.943,0,0,0,.641,1.351,8.694,8.694,0,0,0,.8,1.214,3.858,3.858,0,0,0,.848.825,15.426,15.426,0,0,1,3-1.924,26.738,26.738,0,0,1,3.963-1.6q-0.367,1.374-.71,2.52T9.88,303.455q-0.412,1.168-.962,2.5t-1.283,3.116q-1.649,3.894-2.863,6.8t-2.13,4.994q-0.917,2.085-1.558,3.5t-1.1,2.291A11.551,11.551,0,0,0,2,329.249a6.122,6.122,0,0,0,2.84,1.443,67.461,67.461,0,0,1,2.268-8.132q1.443-4.193,3.734-9.186a5.032,5.032,0,0,0,1.489,1.168,4.5,4.5,0,0,0,1.81.3,18.15,18.15,0,0,0,6.07-1.008,16.688,16.688,0,0,0,4.994-2.726A13.452,13.452,0,0,0,28.6,307.1a9.846,9.846,0,0,0,1.26-4.811A8.483,8.483,0,0,0,29.076,298.622Zm-2.611-.389a4.9,4.9,0,0,1,1.6,3.825A5.466,5.466,0,0,1,26.9,305.4a10.22,10.22,0,0,1-3.253,2.726,18.672,18.672,0,0,1-5.017,1.833,29.479,29.479,0,0,1-6.506.664q1.1-2.29,2.085-4.352t1.81-3.734q0.825-1.671,1.512-2.863a17.135,17.135,0,0,1,1.145-1.787l-0.55-.825a24.1,24.1,0,0,1,3.573-.274A6.919,6.919,0,0,1,26.465,298.233Zm33.169-2.7q-3.024-2.268-8.521-2.268a32.093,32.093,0,0,0-4.352.321,41.136,41.136,0,0,0-4.581.893,36.331,36.331,0,0,0-4.238,1.351,17.739,17.739,0,0,0-3.367,1.7,4.358,4.358,0,0,0,.321,1.237,11.955,11.955,0,0,0,.641,1.351,8.7,8.7,0,0,0,.8,1.214,3.86,3.86,0,0,0,.848.825,14.739,14.739,0,0,1,3-1.9,34.431,34.431,0,0,1,3.917-1.626q-0.367,1.512-.71,2.68t-0.756,2.337q-0.412,1.167-.939,2.451t-1.26,2.978q-1.6,3.8-2.726,6.459t-1.924,4.49l-1.283,2.932q-0.481,1.1-.8,1.81t-0.527,1.1q-0.206.39-.389,0.8a10.079,10.079,0,0,0,2.153,2.7,6.428,6.428,0,0,0,2.7,1.329q0.412-2.109.985-4.147t1.329-4.214q0.756-2.177,1.718-4.513t2.2-4.994a2.574,2.574,0,0,0,.687.642,2.58,2.58,0,0,0,.779.091h1.008q1.237,4.674,2.268,8a48.487,48.487,0,0,0,1.97,5.406A11.116,11.116,0,0,0,52.441,330a2.663,2.663,0,0,0,1.924.963,3.122,3.122,0,0,0,1.168-.252,6.544,6.544,0,0,0,1.191-.642,6.227,6.227,0,0,0,1.008-.847,3.891,3.891,0,0,0,.664-0.917,19.174,19.174,0,0,1-2.428-2.794,38.74,38.74,0,0,1-2.382-3.711q-1.146-2.016-2.13-4.192a43.988,43.988,0,0,1-1.672-4.238,18.1,18.1,0,0,0,5.085-1.42,16.135,16.135,0,0,0,4.077-2.589,11.619,11.619,0,0,0,2.726-3.481,9.066,9.066,0,0,0,.985-4.147A7.337,7.337,0,0,0,59.634,295.53Zm-8.7,1.489q0.87-.091,1.649-0.161t1.558-.068A8.609,8.609,0,0,1,59.222,298a4.084,4.084,0,0,1,1.649,3.5,5.761,5.761,0,0,1-1.168,3.5,10.034,10.034,0,0,1-3.276,2.749,18.6,18.6,0,0,1-4.994,1.81,29.131,29.131,0,0,1-6.322.641q0.916-1.97,1.9-3.986t1.878-3.734q0.893-1.717,1.581-2.955a15.1,15.1,0,0,1,1.008-1.649Zm35.047-3.826a7.864,7.864,0,0,0-1.374-.114,8.606,8.606,0,0,0-4.375,1.237,16.36,16.36,0,0,0-3.986,3.321,28.384,28.384,0,0,0-3.413,4.811,38.651,38.651,0,0,0-2.68,5.749,39.971,39.971,0,0,0-1.741,6.139,30.4,30.4,0,0,0-.618,5.91q0,5.223,2.222,7.9a7.883,7.883,0,0,0,6.437,2.68,15.27,15.27,0,0,0,6-1.329,21.741,21.741,0,0,0,5.864-3.756,27.832,27.832,0,0,0,3.94-4.261,31.156,31.156,0,0,0,3.184-5.223,29.647,29.647,0,0,0,2.108-5.887,26.428,26.428,0,0,0,.756-6.3,10.947,10.947,0,0,0-.389-3.207,6.56,6.56,0,0,0-.962-1.993,4.336,4.336,0,0,0-1.237-1.145q-0.665-.388-1.214-0.665,0.045,0.231.092,0.55t0.114,0.848q0.069,0.526.115,1.282t0.046,1.856a34.928,34.928,0,0,1-.481,5.7,38.7,38.7,0,0,1-1.374,5.658,33.632,33.632,0,0,1-2.176,5.2,24.714,24.714,0,0,1-2.886,4.375,19.914,19.914,0,0,1-2.382,2.428,18.053,18.053,0,0,1-2.611,1.878,14.243,14.243,0,0,1-2.611,1.214,7.456,7.456,0,0,1-2.382.436,3.953,3.953,0,0,1-3.482-1.741,9.5,9.5,0,0,1-1.191-5.315,25.3,25.3,0,0,1,.641-5.589,32.473,32.473,0,0,1,1.764-5.5,30.036,30.036,0,0,1,2.68-4.993,23.774,23.774,0,0,1,3.39-4.078,15.829,15.829,0,0,1,3.871-2.749,9.184,9.184,0,0,1,4.1-1.007q0.641,0,1.42.068a11.242,11.242,0,0,1,1.558.252,1.968,1.968,0,0,0-.573-0.939,10.247,10.247,0,0,0-1.306-1.168q-0.78-.6-1.7-1.168a12.754,12.754,0,0,0-1.787-.94A6.239,6.239,0,0,0,85.977,293.193Zm23.891,35.781a13.071,13.071,0,0,0,6.437,1.489,17.2,17.2,0,0,0,7.788-1.856,21.994,21.994,0,0,0,6.529-4.971,24.086,24.086,0,0,0,4.467-7.192,22.642,22.642,0,0,0,1.649-8.568,14.262,14.262,0,0,0-1.237-6,13.58,13.58,0,0,0-3.436-4.627,15.887,15.887,0,0,0-5.269-3,20.24,20.24,0,0,0-6.734-1.077,21.127,21.127,0,0,0-5.406.665,15.416,15.416,0,0,0-4.444,1.9,11.631,11.631,0,0,0-3.184,2.978,10.169,10.169,0,0,0-1.718,3.848,4.685,4.685,0,0,0,1.145,2.359,4.736,4.736,0,0,0,1.924,1.306,16.183,16.183,0,0,1,3.115-6.093,12.838,12.838,0,0,1,4.948-3.619q-0.321,1.1-1.03,3.161t-1.673,4.673q-0.962,2.611-2.061,5.52t-2.154,5.681q-1.053,2.773-2.015,5.154t-1.65,3.894A9.315,9.315,0,0,0,109.868,328.974Zm20.089-30.9a9.305,9.305,0,0,1,2.932,7.33,22.589,22.589,0,0,1-1.443,8.041,22.033,22.033,0,0,1-3.94,6.711,19.464,19.464,0,0,1-5.818,4.605,15.1,15.1,0,0,1-7.032,1.718,19.552,19.552,0,0,1-1.97-.092,6.554,6.554,0,0,1-1.558-.321,17.184,17.184,0,0,1,1.168-4.627q1.168-3.343,3.78-9.162,1.007-2.29,2.061-4.467t1.993-4.009q0.939-1.832,1.65-3.115a19.231,19.231,0,0,1,1.076-1.787,13.053,13.053,0,0,0-1.832-1.26,19.42,19.42,0,0,0-3.345-1.535,14.59,14.59,0,0,1,4.353-.641A11.483,11.483,0,0,1,129.957,298.072Zm28.244-2.963a14.539,14.539,0,0,0-3.917-1.685,7.386,7.386,0,0,0-1.832-.277,56.611,56.611,0,0,0-2.978,6.434q-1.421,3.592-2.5,7.371a73.508,73.508,0,0,0-1.718,7.417,37.954,37.954,0,0,0-.641,6.524q0,4.991,2.336,7.441a8.627,8.627,0,0,0,6.552,2.449,11.743,11.743,0,0,0,7.147-2.222A21.5,21.5,0,0,0,166.1,322.4a37.831,37.831,0,0,0,2.978-6,68.843,68.843,0,0,0,2.337-6.964,70.618,70.618,0,0,0,1.626-7.33q0.618-3.711.848-7.193a7.2,7.2,0,0,0-1.214-.5,12.16,12.16,0,0,0-1.421-.366q-0.711-.138-1.259-0.229a6.079,6.079,0,0,0-.688-0.092,11.308,11.308,0,0,1,.138,1.329q0.045,0.824.046,2.611,0,2.795-.275,5.841t-0.848,6.048a48.864,48.864,0,0,1-1.489,5.841,31.2,31.2,0,0,1-2.2,5.223,21.989,21.989,0,0,1-4.215,5.749,7.436,7.436,0,0,1-5.222,2.085,4,4,0,0,1-3.62-1.6,9.711,9.711,0,0,1-1.053-5.177,34.038,34.038,0,0,1,.618-6.207,47.781,47.781,0,0,1,1.787-6.735,52.015,52.015,0,0,1,2.817-6.666,40.907,40.907,0,0,1,3.665-5.956A5.957,5.957,0,0,0,158.2,295.109Zm30.787,3.948q1.718-.159,3.642-0.389-0.274,1.054-.664,2.336t-0.87,2.658q-0.481,1.374-.985,2.771t-0.963,2.68q-1.236,3.436-2.2,6.139t-1.672,4.834q-0.711,2.13-1.237,3.8t-0.893,3.093a7.305,7.305,0,0,0,5.131,3.848q0.32-1.929.733-3.951T190,322.629q0.573-2.228,1.329-4.8t1.763-5.6q0.5-1.561,1.192-3.514t1.443-3.928q0.756-1.976,1.534-3.79t1.421-3.147a24.951,24.951,0,0,1,3-.184h4.948a20.732,20.732,0,0,1,2.36.137,9.9,9.9,0,0,0-1.123-3.367,2.639,2.639,0,0,0-2.451-1.26q-0.6,0-2.657.25t-4.765.527a55.436,55.436,0,0,1-5.658.277h-5.291q-1.558,0-2.726-.065a9.4,9.4,0,0,1-1.764-.224,3.89,3.89,0,0,0-.3.873,4.054,4.054,0,0,0-.114.873,3.5,3.5,0,0,0,.985,2.5,3.71,3.71,0,0,0,2.817,1.033Q187.27,299.218,188.988,299.057Zm38-5.864a7.86,7.86,0,0,0-1.374-.114,8.6,8.6,0,0,0-4.375,1.237,16.364,16.364,0,0,0-3.986,3.321,28.384,28.384,0,0,0-3.413,4.811,38.62,38.62,0,0,0-2.68,5.749,39.915,39.915,0,0,0-1.741,6.139,30.435,30.435,0,0,0-.619,5.91q0,5.223,2.222,7.9a7.883,7.883,0,0,0,6.437,2.68,15.275,15.275,0,0,0,6-1.329,21.757,21.757,0,0,0,5.864-3.756,27.863,27.863,0,0,0,3.94-4.261,31.156,31.156,0,0,0,3.184-5.223,29.684,29.684,0,0,0,2.107-5.887,26.423,26.423,0,0,0,.756-6.3,10.951,10.951,0,0,0-.389-3.207,6.574,6.574,0,0,0-.962-1.993,4.337,4.337,0,0,0-1.237-1.145q-0.665-.388-1.214-0.665c0.03,0.154.061,0.337,0.091,0.55s0.069,0.5.115,0.848,0.084,0.779.114,1.282,0.046,1.123.046,1.856a34.9,34.9,0,0,1-.481,5.7,38.689,38.689,0,0,1-1.374,5.658,33.74,33.74,0,0,1-2.176,5.2,24.733,24.733,0,0,1-2.887,4.375,19.89,19.89,0,0,1-2.382,2.428,18.055,18.055,0,0,1-2.611,1.878,14.263,14.263,0,0,1-2.612,1.214,7.452,7.452,0,0,1-2.382.436,3.953,3.953,0,0,1-3.482-1.741,9.507,9.507,0,0,1-1.191-5.315,25.3,25.3,0,0,1,.641-5.589,32.5,32.5,0,0,1,1.764-5.5,30.072,30.072,0,0,1,2.68-4.993,23.777,23.777,0,0,1,3.391-4.078,15.813,15.813,0,0,1,3.871-2.749,9.182,9.182,0,0,1,4.1-1.007q0.64,0,1.42.068a11.252,11.252,0,0,1,1.558.252,1.969,1.969,0,0,0-.573-0.939,10.2,10.2,0,0,0-1.3-1.168q-0.78-.6-1.7-1.168a12.783,12.783,0,0,0-1.787-.94A6.235,6.235,0,0,0,226.99,293.193ZM267.9,294a21.408,21.408,0,0,0-5.91-.825,20.2,20.2,0,0,0-3.276.275,13.1,13.1,0,0,0-3.138.916,9.638,9.638,0,0,0-4.49,3.482,8.489,8.489,0,0,0-1.558,4.856,6.677,6.677,0,0,0,.619,2.933,7.742,7.742,0,0,0,1.97,2.451,19.114,19.114,0,0,0,3.436,2.29q2.084,1.124,4.971,2.405,1.923,0.825,3.711,1.65a34.838,34.838,0,0,1,3.138,1.626,10,10,0,0,1,2.153,1.649,2.78,2.78,0,0,1,.848,1.764,5.47,5.47,0,0,1-.413,1.466,5.364,5.364,0,0,1-1.283,1.81,7.635,7.635,0,0,1-2.519,1.535,11.382,11.382,0,0,1-4.169.641,20.906,20.906,0,0,1-5.017-.664,19.751,19.751,0,0,1-5.2-2.131,13.143,13.143,0,0,1-4.054-3.481,7.126,7.126,0,0,1-1.489-3.253,9.753,9.753,0,0,0-1.9,2.978,7.058,7.058,0,0,0-.526,2.336,5.31,5.31,0,0,0,1.718,3.734,16.763,16.763,0,0,0,4.306,3.115,26.451,26.451,0,0,0,5.567,2.131,21.992,21.992,0,0,0,5.543.779,12.549,12.549,0,0,0,4.719-.848,10.456,10.456,0,0,0,3.6-2.359,10.2,10.2,0,0,0,2.268-3.551,12.158,12.158,0,0,0,.779-4.375,9.547,9.547,0,0,0-.55-3.436,7.459,7.459,0,0,0-1.649-2.543,12.071,12.071,0,0,0-2.8-2.061q-1.695-.939-4.032-2.039-1.878-.87-3.825-1.833t-3.551-1.947a16.722,16.722,0,0,1-2.7-2.016,3.569,3.569,0,0,1-1.237-2.038,2.056,2.056,0,0,1,.619-1.466,4.836,4.836,0,0,1,1.695-1.077,12.552,12.552,0,0,1,2.474-.687,16.9,16.9,0,0,1,3-.252,20.5,20.5,0,0,1,3.3.275,18.151,18.151,0,0,1,3.276.847,13.4,13.4,0,0,1,2.909,1.466,9.052,9.052,0,0,1,2.245,2.131,3.959,3.959,0,0,0,1.81-1.856,6.131,6.131,0,0,0,.664-2.817,3.705,3.705,0,0,0-.069-0.8q-0.067-.3-0.206-1.077A44.117,44.117,0,0,0,267.9,294Z" transform="translate(0 -23)"/>
</svg>
